# xmcd CD database file
#
# Track frame offsets:
#	150
#	18397
#	39467
#	54130
#	73294
#	84943
#	96393
#
# Disc length: 1526 seconds
#
# Revision: 1
# Processed by: cddbd v1.5.2PL0 Copyright (c) Steve Scherf et al.
# Submitted via: CDex 1.51
#
DISCID=5205f407
DTITLE=Kuto - Denbora Amaitzen Zaigu
DYEAR=2004
DGENRE=Metal
TTITLE0=Argian iluntasuna
TTITLE1=11 urte
TTITLE2=Zein da zein
TTITLE3=Urrezko ametsak
TTITLE4=Pentsamendu bat
TTITLE5=Bide baten bila
TTITLE6=Itsasoa
EXTD=YEAR: 2004
EXTT0=
EXTT1=
EXTT2=
EXTT3=
EXTT4=
EXTT5=
EXTT6=
PLAYORDER=
